#!OML:ASF Y:\EmotionMaleHayes\Project 1\Capture day 1\Session 1\Male1.ASF
:FULLY-SPECIFIED
:DEGREES
67
root 8.82801 17.4519 0.0154319 134.559 69.1478 128.894
lowerback 10.7848 -5.40544 -22.4642
upperback 1.42724 -9.53929 -1.99403
thorax -1.16997 -4.56312 11.0501
lowerneck -27.9951 3.58621 3.01575
upperneck 26.5219 4.5671 -1.90844
head 13.7912 2.05064 -0.353377
rclavicle -2.25621e-014 -9.06458e-014
rhumerus -91.7737 18.3892 -77.8791
rradius 77.7476
rwrist -17.0631
rhand -15.1958 -26.9325
rfingers 7.12502
rthumb 10.9759 -56.6256
lclavicle -2.25621e-014 -9.06458e-014
lhumerus -16.9209 -31.4744 79.9279
lradius 110.231
lwrist 9.31318
lhand -41.2529 -39.7719
lfingers 7.12502
lthumb -14.1753 -10.2756
rfemur -37.5768 -12.9495 0.769679
rtibia 21.0669
rfoot -12.5663 -3.5479
rtoes 1.16506
lfemur 30.4329 -3.7756 -31.4486
ltibia 22.3483
lfoot 377.235 8.07766
ltoes 4.04553
68
root 9.45471 17.468 -0.00220387 135.856 69.3098 130.277
lowerback 10.5351 -5.57621 -21.718
upperback 1.18471 -9.67531 -1.84825
thorax -1.35654 -4.60951 10.8135
lowerneck -27.6231 3.70794 3.2495
upperneck 26.7247 4.77376 -2.21125
head 13.8261 2.12688 -0.475043
rclavicle -8.15266e-014 -3.15074e-014
rhumerus -91.6772 18.2683 -76.6275
rradius 78.0483
rwrist -17.0796
rhand -14.6999 -26.9922
rfingers 7.12502
rthumb 11.4542 -56.6593
lclavicle -8.15266e-014 -3.15074e-014
lhumerus -18.5463 -32.3744 80.1741
lradius 111.606
lwrist 9.36996
lhand -41.8746 -43.169
lfingers 7.12502
lthumb -14.7744 -13.7156
rfemur -35.7576 -12.1024 0.508384
rtibia 16.0143
rfoot -12.9636 -3.32376
rtoes 5.39943
lfemur 30.3635 -4.3007 -31.0073
ltibia 26.0393
lfoot 377.034 7.95864
ltoes 5.07825
69
root 10.0707 17.4613 -0.0213729 136.351 69.1791 130.833
lowerback 9.87234 -5.72233 -21.5589
upperback 1.29971 -9.66864 -1.73782
thorax -0.86452 -4.67575 10.7422
lowerneck -27.7175 3.69342 3.41068
upperneck 26.7572 4.77042 -2.48536
head 13.8727 2.10043 -0.610714
rclavicle -2.04003e-014 -3.89618e-014
rhumerus -90.8152 17.9924 -75.239
rradius 78.3769
rwrist -17.4647
rhand -14.3879 -27.5382
rfingers 7.12502
rthumb 11.7551 -57.1884
lclavicle -2.04003e-014 -3.89618e-014
lhumerus -19.4931 -32.8284 80.2264
lradius 112.498
lwrist 9.6513
lhand -41.2889 -46.5818
lfingers 7.12502
lthumb -14.21 -17.0879
rfemur -34.373 -12.0193 0.161879
rtibia 12.5034
rfoot -13.6649 -3.39874
rtoes 1.63366
lfemur 30.1361 -4.812 -31.0867
ltibia 30.1252
lfoot 377.333 7.88868
ltoes 7.49692
70
root 10.6773 17.4317 -0.0358193 136.292 68.992 130.869
lowerback 9.4898 -5.75828 -21.5555
upperback 1.27748 -9.62615 -1.67566
thorax -0.679546 -4.67741 10.7549
lowerneck -27.6441 3.61942 3.28417
upperneck 26.7613 4.69201 -2.38871
head 13.8501 2.06932 -0.567558
rclavicle 2.22452e-014 5.28767e-014
rhumerus -90.0618 17.7834 -74.1448
rradius 78.5394
rwrist -17.9871
rhand -14.6762 -27.7766
rfingers 7.12502
rthumb 11.477 -57.4424
lclavicle 2.22452e-014 5.28767e-014
lhumerus -21.1591 -33.5011 80.8592
lradius 113.464
lwrist 9.15551
lhand -41.7076 -48.9307
lfingers 7.12502
lthumb -14.6134 -19.4655
rfemur -33.4207 -12.2972 -0.16607
rtibia 9.9269
rfoot -13.8612 -3.50331
rtoes 2.65176
lfemur 29.8335 -5.22272 -31.268
ltibia 34.5461
lfoot 375.401 8.28581
ltoes 2.14983
71
root 11.2802 17.3818 -0.0453141 136.326 68.9428 131.136
lowerback 9.24436 -5.65741 -21.3556
upperback 1.22351 -9.4274 -1.64454
thorax -0.697538 -4.57828 10.6606
lowerneck -27.3346 3.437 2.96441
upperneck 26.7829 4.47159 -2.03786
head 13.7698 1.9988 -0.421635
rclavicle 5.61815e-014 8.62477e-014
rhumerus -89.3813 17.3298 -73.2747
rradius 78.6148
rwrist -18.4922
rhand -15.4317 -28.2765
rfingers 7.12502
rthumb 10.7484 -57.9815
lclavicle 5.61815e-014 8.62477e-014
lhumerus -23.2089 -34.2925 81.8945
lradius 113.925
lwrist 8.27487
lhand -42.0792 -51.9868
lfingers 7.12502
lthumb -14.9714 -22.548
rfemur -32.7579 -12.9047 0.0637185
rtibia 9.12538
rfoot -14.4576 -3.73833
rtoes -0.000198562
lfemur 29.6077 -5.5591 -31.2094
ltibia 38.8423
lfoot 377.91 9.17811
ltoes 10.9603
72
root 11.8769 17.3129 -0.0575063 135.907 68.8114 131.024
lowerback 9.03982 -5.4852 -21.2505
upperback 1.21989 -9.14144 -1.74726
thorax -0.717244 -4.43296 10.4718
lowerneck -26.8517 3.2199 2.94219
upperneck 26.6466 4.12578 -1.85958
head 13.5997 1.88162 -0.421108
rclavicle 3.69864e-014 -1.54058e-015
rhumerus -88.5478 16.7035 -72.6343
rradius 78.6532
rwrist -18.882
rhand -16.3577 -29.3283
rfingers 7.12502
rthumb 9.85509 -59.0776
lclavicle 3.69864e-014 -1.54058e-015
lhumerus -25.4839 -35.2005 83.1146
lradius 113.901
lwrist 6.06332
lhand -43.5979 -50.4006
lfingers 7.12502
lthumb -16.4341 -21.0767
rfemur -32.0641 -12.6991 -0.292037
rtibia 8.72
rfoot -15.1979 -5.08311
rtoes 0.626719
lfemur 29.3394 -5.91815 -31.4791
ltibia 43.2298
lfoot 374.274 8.96946
ltoes -3.57448
73
root 12.4671 17.2277 -0.0741551 135.482 68.7709 131.032
lowerback 8.81502 -5.27625 -21.0496
upperback 1.40031 -8.76509 -1.81176
thorax -0.554191 -4.27596 10.2576
lowerneck -26.424 3.03251 2.96981
upperneck 26.216 3.85094 -1.892
head 13.3284 1.76526 -0.498292
rclavicle -5.61567e-014 -2.10712e-014
rhumerus -87.3014 16.1309 -72.077
rradius 78.6181
rwrist -19.2532
rhand -17.4243 -30.3897
rfingers 7.12502
rthumb 8.8259 -60.1852
lclavicle -5.61567e-014 -2.10712e-014
lhumerus -27.5798 -35.9842 84.3391
lradius 114.109
lwrist 4.20205
lhand -44.984 -56.4773
lfingers 7.12502
lthumb -17.7683 -27.2691
rfemur -31.3184 -11.8841 -0.746472
rtibia 8.92907
rfoot -16.3188 -6.72071
rtoes 0.705851
lfemur 29.0529 -6.27809 -31.7403
ltibia 47.8307
lfoot 374.062 9.16024
ltoes -1.00906
74
root 13.0551 17.1299 -0.0924308 135.304 68.8495 131.447
lowerback 8.8797 -4.98539 -20.6375
upperback 1.57864 -8.33891 -1.79617
thorax -0.587774 -4.07687 10.0601
lowerneck -26.2911 2.7595 2.5628
upperneck 25.9584 3.52524 -1.586
head 13.1702 1.62692 -0.375144
rclavicle 2.72087e-014 -6.16232e-015
rhumerus -85.9661 15.5987 -71.5692
rradius 78.5788
rwrist -19.6707
rhand -18.857 -31.3508
rfingers 7.12502
rthumb 7.44315 -61.1998
lclavicle 2.72087e-014 -6.16232e-015
lhumerus -29.5269 -36.3449 85.5361
lradius 113.814
lwrist 3.67433
lhand -44.2012 -60.5967
lfingers 7.12502
lthumb -17.0148 -31.3219
rfemur -30.4602 -10.9778 -0.947477
rtibia 9.75101
rfoot -17.2863 -7.89221
rtoes 1.6009
lfemur 28.8916 -6.53143 -31.723
ltibia 52.2595
lfoot 375.054 9.06509
ltoes 5.29603
75
root 13.6422 17.0163 -0.106706 134.457 68.7408 131.256
lowerback 9.38115 -4.64132 -20.5612
upperback 1.51839 -8.01018 -1.88767
thorax -1.06662 -3.85868 9.99045
lowerneck -25.928 2.46512 2.43288
upperneck 25.8858 3.11451 -1.40639
head 13.0524 1.46579 -0.364011
rclavicle -7.57618e-014 -1.45113e-014
rhumerus -84.8455 15.2165 -71.2545
rradius 78.5129
rwrist -19.7977
rhand -20.3273 -32.043
rfingers 7.12502
rthumb 6.02387 -61.9374
lclavicle -7.57618e-014 -1.45113e-014
lhumerus -32.2125 -36.4796 87.0766
lradius 113.45
lwrist 3.44102
lhand -44.0711 -59.5452
lfingers 7.12502
lthumb -16.8896 -30.2596
rfemur -29.6306 -10.6727 -1.20864
rtibia 11.1982
rfoot -17.6109 -8.06926
rtoes 3.44237
lfemur 28.7396 -6.639 -31.9392
ltibia 56.5841
lfoot 375.579 8.1253
ltoes 5.64046
76
root 14.227 16.8891 -0.120656 133.348 68.7097 130.923
lowerback 9.92405 -4.26135 -20.4828
upperback 1.49981 -7.63624 -2.02779
thorax -1.54156 -3.61956 9.85924
lowerneck -25.2729 2.26239 2.74134
upperneck 25.6257 2.77495 -1.59284
head 12.8184 1.32901 -0.556271
rclavicle -7.69794e-014 -5.06901e-014
rhumerus -83.5933 14.8059 -70.9361
rradius 78.4848
rwrist -19.4498
rhand -20.8198 -32.7007
rfingers 7.12502
rthumb 5.54834 -62.608
lclavicle -7.69794e-014 -5.06901e-014
lhumerus -35.128 -36.3212 88.6383
lradius 112.846
lwrist 2.87736
lhand -44.3027 -56.1579
lfingers 7.12502
lthumb -17.1126 -26.8915
rfemur -28.7034 -10.8706 -1.23176
rtibia 12.9413
rfoot -17.4598 -7.21762
rtoes 5.36059
lfemur 28.6056 -6.62435 -32.1382
ltibia 60.9251
lfoot 372.963 4.80585
ltoes 3.71946
77
root 14.8041 16.7613 -0.1476 132.147 68.7456 130.549
lowerback 10.5162 -3.82185 -20.2283
upperback 1.55901 -7.16647 -2.10571
thorax -1.99768 -3.34404 9.69037
lowerneck -24.9264 2.13826 2.65758
upperneck 25.4407 2.61924 -1.52554
head 12.6692 1.26517 -0.547238
rclavicle -6.35862e-014 -1.09332e-014
rhumerus -82.0758 14.3387 -70.4164
rradius 78.4259
rwrist -19.1042
rhand -21.0091 -33.0117
rfingers 7.12502
rthumb 5.36556 -62.9238
lclavicle -6.35862e-014 -1.09332e-014
lhumerus -37.7577 -35.9461 90.1945
lradius 112.069
lwrist 1.91615
lhand -43.8673 -53.0982
lfingers 7.12502
lthumb -16.6935 -23.796
rfemur -27.6925 -11.5397 -1.11944
rtibia 14.8535
rfoot -17.068 -5.77216
rtoes 6.50182
lfemur 28.4733 -6.49172 -32.3828
ltibia 65.1988
lfoot 371.812 3.33939
ltoes -1.89928
78
root 15.373 16.6305 -0.181395 130.192 68.7804 129.304
lowerback 11.2214 -3.29712 -20.1649
upperback 1.49925 -6.64971 -2.12836
thorax -2.63053 -3.02018 9.68787
lowerneck -24.7143 2.02398 2.29806
upperneck 25.4028 2.59725 -1.4851
head 12.6053 1.22872 -0.476993
rclavicle 4.19933e-014 -5.24792e-014
rhumerus -80.5022 14.1182 -69.8478
rradius 78.3277
rwrist -18.9128
rhand -21.6251 -32.6974
rfingers 7.12502
rthumb 4.7708 -62.6237
lclavicle 4.19933e-014 -5.24792e-014
lhumerus -40.3308 -35.3449 91.9217
lradius 111.27
lwrist 1.45157
lhand -43.0504 -51.0866
lfingers 7.12502
lthumb -15.9069 -21.7199
rfemur -26.8112 -12.1704 -1.20398
rtibia 16.8134
rfoot -15.4754 -4.23314
rtoes 7.89631
lfemur 28.0985 -6.04166 -32.8109
ltibia 69.4041
lfoot 371.296 2.47962
ltoes -4.57158
79
root 15.9291 16.4966 -0.21731 127.305 68.461 126.838
lowerback 11.7595 -2.78677 -20.677
upperback 1.39716 -6.18317 -2.2621
thorax -3.15165 -2.7174 9.84298
lowerneck -24.8362 1.85619 2.12183
upperneck 25.5259 2.48435 -1.65572
head 12.6761 1.13768 -0.532307
rclavicle -2.07233e-014 3.73715e-014
rhumerus -78.7013 14.0704 -69.3786
rradius 78.3226
rwrist -18.6248
rhand -22.1361 -32.3906
rfingers 7.12502
rthumb 4.27736 -62.3274
lclavicle -2.07233e-014 3.73715e-014
lhumerus -42.5933 -34.428 93.3774
lradius 109.957
lwrist 0.887877
lhand -43.0543 -49.4059
lfingers 7.12502
lthumb -15.9107 -20.0395
rfemur -26.311 -13.5075 -1.72045
rtibia 18.9362
rfoot -12.1736 -2.75168
rtoes 12.2875
lfemur 27.2066 -5.38752 -33.7558
ltibia 73.7444
lfoot 370.642 2.08579
ltoes -6.15738
80
root 16.474 16.3557 -0.238558 125.146 68.9556 125.151
lowerback 12.1632 -2.20322 -20.4951
upperback 1.41306 -5.494 -2.19143
thorax -3.5885 -2.33959 9.80583
lowerneck -24.8128 1.74122 1.9461
upperneck 25.4251 2.38268 -1.6409
head 12.626 1.07739 -0.515762
rclavicle 3.15571e-014 1.09729e-013
rhumerus -76.6823 13.8064 -69.0106
rradius 78.3583
rwrist -18.2747
rhand -22.5324 -32.202
rfingers 7.12502
rthumb 3.89467 -62.1461
lclavicle 3.15571e-014 1.09729e-013
lhumerus -44.3614 -33.2552 94.3646
lradius 108.452
lwrist 0.153495
lhand -42.5529 -46.0391
lfingers 7.12502
lthumb -15.4277 -16.6348
rfemur -26.1587 -14.4133 -1.06573
rtibia 21.2189
rfoot -6.00477 -3.67412
rtoes 24.249
lfemur 26.2132 -4.43908 -33.4606
ltibia 77.9193
lfoot 370.167 1.65211
ltoes -5.75284
81
root 17.014 16.1987 -0.235601 125.026 71.9426 125.867
lowerback 12.6767 -1.40949 -17.9845
upperback 1.49373 -4.24489 -1.48392
thorax -4.31192 -1.72621 9.13525
lowerneck -24.5105 1.53818 1.69999
upperneck 25.077 2.12545 -1.44829
head 12.4167 0.967778 -0.448701
rclavicle 3.93097e-014 1.98785e-014
rhumerus -74.8178 13.3002 -68.7678
rradius 78.5366
rwrist -17.9694
rhand -22.6129 -32.4744
rfingers 7.12502
rthumb 3.81693 -62.42
lclavicle 3.93097e-014 1.98785e-014
lhumerus -46.1948 -32.2339 95.5618
lradius 106.911
lwrist 0.568639
lhand -41.1041 -43.5837
lfingers 7.12502
lthumb -14.0319 -14.0774
rfemur -26.746 -12.969 2.81667
rtibia 24.3583
rfoot -0.358904 -4.67683
rtoes 38.0403
lfemur 25.5463 -2.72563 -29.7854
ltibia 81.908
lfoot 377.905 -19.4642
ltoes -3.30684
